<svg version="1.1" xmlns="http://www.w3.org/2000/svg" xmlns:xlink="http://www.w3.org/1999/xlink" width="1560" height="804"><defs/><g><path fill="none" stroke="#02063B" paint-order="fill stroke markers" d=" M 20 683.4043511234063 L 21 690.7057234856791 L 22 697.1162579604909 L 23 702.6161740359759 L 24 707.1885010280802 L 25 710.819130445745 L 26 713.4968595244336 L 27 715.2134257936731 L 28 715.9635325719481 L 29 715.744865310279 L 30 714.5580987340542 L 31 712.4068947610801 L 32 709.2978912022728 L 33 705.2406812798549 L 34 700.2477840262608 L 35 694.334605655084 L 36 687.5193920232641 L 37 679.823172331196 L 38 671.2696942344828 L 39 661.8853505675515 L 40 651.6990979052374 L 41 640.7423672136233 L 42 629.0489668658339 L 43 616.65497832204 L 44 603.5986447955672 L 45 589.9202532486423 L 46 575.662010081895 L 47 560.8679109011906 L 48 545.583604763645 L 49 529.8562533217063 L 50 513.7343852999346 L 51 497.2677467535068 L 52 480.5071475704959 L 53 463.50430469155833 L 54 446.3116825307983 L 55 428.98233109020623 L 56 411.56972226719375 L 57 394.1275848603169 L 58 376.7097387822975 L 59 359.3699289919019 L 60 342.1616596570976 L 61 325.1380290612026 L 62 308.35156576144044 L 63 291.8540665054594 L 64 275.69643640593983 L 65 259.92853186645584 L 66 244.59900674325974 L 67 229.75516221767757 L 68 215.44280084235487 L 69 201.7060852117085 L 70 188.5874016926777 L 71 176.12722963624728 L 72 164.36401647331056 L 73 153.33405908027598 L 74 143.07139178048214 L 75 133.60768132700423 L 76 124.9721291908981 L 77 117.19138145638073 L 78 110.28944660098074 L 79 104.28762141435556 L 80 99.20442528436365 L 81 95.05554305315957 L 82 91.85377661963719 L 83 89.60900543755776 L 84 88.3281560312505 L 85 88.01518062294872 L 86 88.67104493771052 L 87 90.29372522355203 L 88 92.87821449598954 L 89 96.41653798772086 L 90 100.89777775577454 L 91 106.3081063701988 L 92 112.6308295803388 L 93 119.84643782705086 L 94 127.93266644190476 L 95 136.8645643476243 L 96 146.6145710477799 L 97 157.15260166817296 L 98 168.44613978750573 L 99 180.46033777089693 L 100 193.15812429664976 L 101 206.50031874448598 L 102 220.445752092287 L 103 234.95139394829815 L 104 249.97248532682565 L 105 265.4626767577258 L 106 281.3741713035357 L 107 297.6578720429457 L 108 314.2635335655373 L 109 331.13991701032745 L 110 348.2349481697306 L 111 365.4958781710879 L 112 382.869446239959 L 113 400.30204404295455 L 114 417.73988110300223 L 115 435.12915077664235 L 116 452.4161962812047 L 117 469.5476762595741 L 118 486.47072937166774 L 119 503.1331374047611 L 120 519.4834863993631 L 121 535.4713252934653 L 122 551.0473215956524 L 123 566.1634136067194 L 124 580.7729587201007 L 125 594.8308773435093 L 126 608.2937919976998 L 127 621.1201611631456 L 128 633.270407461632 L 129 644.7070397772437 L 130 655.394768939926 L 131 665.3006166146672 L 132 674.394017060305 L 133 682.6469114439733 L 134 690.0338344201655 L 135 696.531992707268 L 136 702.1213354191016 L 137 706.7846159344576 L 138 710.5074451137211 L 139 713.2783356983736 L 140 715.0887377563768 L 141 715.9330650640654 L 142 715.8087123431446 L 143 714.7160632996033 L 144 712.6584894397419 L 145 709.6423396669645 L 146 705.6769206914373 L 147 700.7744683130624 L 148 694.9501096663741 L 149 688.2218165438609 L 150 680.6103499417341 L 151 672.1391959992584 L 152 662.8344935293101 L 153 652.724953363776 L 154 641.8417697626643 L 155 630.2185241602846 L 156 617.8910815455014 L 157 604.8974797957911 L 158 591.2778123065787 L 159 577.074104278015 L 160 562.3301830409248 L 161 547.0915428220562 L 162 531.4052043659116 L 163 515.3195698463152 L 164 498.8842735154076 L 165 482.15002855090654 L 166 465.1684705742068 L 167 447.9919983221639 L 168 430.6736119641913 L 169 413.266749563556 L 170 395.82512218750367 L 171 378.40254817499186 L 172 361.0527870734243 L 173 343.82937375679336 L 174 326.7854532370808 L 175 309.97361667862697 L 176 293.4457391214661 L 177 277.2528194143558 L 178 261.4448228514006 L 179 246.07052699784262 L 180 231.17737118073788 L 181 216.81131010893512 L 182 203.01667207403116 L 183 189.83602216984173 L 184 177.31003095244117 L 185 165.4773489460367 L 186 154.37448738190758 L 187 144.03570553839796 L 188 134.49290502959838 L 189 125.7755313688956 L 190 117.9104831111307 L 191 110.92202885371887 L 192 104.83173235283408 L 193 99.65838598572253 L 194 95.41795276445441 L 195 92.12351708003945 L 196 89.7852443288889 L 197 88.41034954620477 L 198 88.00307514307912 L 199 88.56467781600043 L 200 90.09342466915808 L 201 92.58459856151063 L 202 96.03051266211924 L 203 100.42053416883255 L 204 105.74111711713778 L 205 111.97584417794121 L 206 119.10547731530545 L 207 127.10801714783344 L 208 135.95877083053188 L 209 145.63042824769553 L 210 156.09314628171074 L 211 167.31464089775469 L 212 179.26028676025354 L 213 191.89322407371637 L 214 205.17447231828106 L 215 219.0630505290184 L 216 233.51610374786344 L 217 248.48903525798838 L 218 263.9356441925918 L 219 279.80826809349446 L 220 296.05792997965966 L 221 312.6344894718401 L 222 329.4867975070332 L 223 346.56285416536406 L 224 363.8099691223872 L 225 381.17492423172297 L 226 398.60413773635366 L 227 416.04382960188593 L 228 433.44018746162385 L 229 450.7395326614063 L 230 467.8884858918591 L 231 484.83413189697734 L 232 501.52418275081885 L 233 517.9071391984858 L 234 533.9324495635652 L 235 549.5506657316964 L 236 564.7135957289581 L 237 579.3744524242763 L 238 593.4879978970132 L 239 607.0106830242707 L 240 619.9007818571956 L 241 632.1185203716545 L 242 643.6261991959952 L 243 654.388309937209 L 244 664.3716447465506 L 245 673.5453987865409 L 246 681.8812652831732 L 247 689.3535228700321 L 248 695.9391149548103 L 249 701.6177208633286 L 250 706.371818541538 L 251 710.1867386220242 L 252 713.0507096881893 L 253 714.9548945964409 L 254 715.8934177443128 L 255 715.8633832003759 L 256 714.8648836399998 L 257 712.9010000593914 L 258 709.9777922687933 L 259 706.1042801941747 L 260 701.2924160451141 L 261 695.5570474347505 L 262 688.9158715656017 L 263 681.3893806226172 L 264 673.0007985419581 L 265 663.7760093506167 L 266 653.7434772979892 L 267 642.9341590258489 L 268 631.3814080477252 L 269 619.1208718324369 L 270 606.1903818093347 L 271 592.6298366346589 L 272 578.4810790792089 L 273 563.7877669172009 L 274 548.595238214705 L 275 532.950371433329 L 276 516.9014407808204 L 277 500.4979672549125 L 278 483.7905658400484 L 279 466.83078932846814 L 280 449.67096924757266 L 281 432.364054384402 L 282 414.9634474054812 L 283 397.5228400761638 L 284 380.09604758792426 L 285 362.73684250480574 L 286 345.4987888413951 L 287 328.43507678430876 L 288 311.5983585671695 L 289 295.0405860055045 L 290 278.8128501928753 L 291 262.96522385286517 L 292 247.54660683338886 L 293 232.60457522004253 L 294 218.18523453410458 L 295 204.33307746813267 L 296 191.0908465981623 L 297 178.49940249609537 L 298 166.59759764926324 L 299 155.42215657617876 L 300 145.00756250840521 L 301 135.38595098820502 L 302 126.58701071026974 L 303 118.63789191351668 L 304 111.563122605601 L 305 105.38453287866201 L 306 100.12118754981918 L 307 95.78932733427973 L 308 92.4023187325642 L 309 89.97061278648442 L 310 88.50171283113832 L 311 88.00015134242295 L 312 88.46747595150993 L 313 89.9022446694338 L 314 92.30003033653088 L 315 95.65343428299855 L 316 99.95210915842256 L 317 105.18279085983056 L 318 111.32933945975458 L 319 118.37278900800811 L 320 126.2914060535187 L 321 135.0607567056257 L 322 144.653782027933 L 323 155.04088153206212 L 324 166.1900045136937 L 325 178.0667489490499 L 326 190.63446764667486 L 327 203.85438132696467 L 328 217.68569828051469 L 329 232.0857402360859 L 330 247.0100740497811 L 331 262.4126488091165 L 332 278.2459379289071 L 333 294.4610858005417 L 334 311.0080585421118 L 335 327.8357983842624 L 336 344.89238121537494 L 337 362.12517679994977 L 338 379.4810111758373 L 339 396.9063307291898 L 340 414.3473674408936 L 341 431.75030479455813 L 342 449.06144383416705 L 343 466.2273688589655 L 344 483.1951122443388 L 345 499.9123178800953 L 346 516.3274027218338 L 347 532.3897159569353 L 348 548.0496952940191 L 349 563.2590198936458 L 350 577.9707594683484 L 351 592.1395190919548 L 352 605.721579271346 L 353 618.6750308484641 L 354 630.9599043163023 L 355 642.5382931498489 L 356 653.3744707714534 L 357 663.4350007896774 L 358 672.688840171499 L 359 681.1074350294973 L 360 688.664808728475 L 361 695.3376420396354 L 362 701.1053450950026 L 363 705.9501209200549 L 364 709.8570203485299 L 365 712.8139881499619 L 366 714.8119002276144 L 367 715.8445917720296 L 368 715.9088762833258 L 369 715.004555403543 L 370 713.1344195287027 L 371 710.3042391986886 L 372 706.5227472915185 L 373 701.80161207695 L 374 696.1554012125617 L 375 689.6015367934135 L 376 682.1602415939728 L 377 673.8544766682007 L 378 664.7098705003216 L 379 654.7546399249104 L 380 644.0195030602922 L 381 632.5375845239158 L 382 620.3443132221771 L 383 607.4773130300589 L 384 593.9762866979298 L 385 579.8828933436994 L 386 565.2406199083665 L 387 550.0946469715776 L 388 534.4917093412604 L 389 518.4799518474838 L 390 502.1087807855142 L 391 485.4287114664744 L 392 468.49121234597646 L 393 451.34854621172644 L 394 434.0536089200983 L 395 416.6597661793131 L 396 399.2206888828132 L 397 381.79018750096554 L 398 364.4220460420718 L 399 347.1698560950308 L 400 330.08685146574544 L 401 313.2257439174988 L 402 296.6385605221748 L 403 280.3764831241646 L 404 264.4896904123443 L 405 249.0272030874 L 406 234.03673260228607 L 407 219.5645339425221 L 408 205.65526290060444 L 409 192.35183828493766 L 410 179.69530948843664 L 411 167.724729825459 L 412 156.4770360278765 L 413 145.98693427214062 L 414 136.28679308899643 L 415 127.40654348630744 L 416 119.37358659315703 L 417 112.21270911021065 L 418 105.94600682723137 L 419 100.59281644373283 L 420 96.16965590315937 L 421 92.69017342468771 L 422 90.16510538992918 L 423 88.60224321446958 L 424 88.00640930647603 L 425 88.37944218654815 L 426 89.7201908147315 L 427 92.02451814219597 L 428 95.28531387662184 L 429 99.49251642190171 L 430 104.63314392446466 L 431 110.69133433041878 L 432 117.64839432992011 L 433 125.4828570377328 L 434 134.17054823200937 L 435 143.68466094690007 L 436 153.99583818881976 L 437 165.07226352115566 L 438 176.879759237886 L 439 189.38189182320417 L 440 202.5400843717165 L 441 216.31373562235095 L 442 230.6603452386582 L 443 245.5356449489574 L 444 260.89373514166914 L 445 276.6872264943439 L 446 292.86738619939547 L 447 309.38428833531117 L 448 326.1869679193816 L 449 343.22357816656796 L 450 360.4415504692993 L 451 377.7877566045265 L 452 395.2086726675529 L 453 412.65054422678895 L 454 430.05955218981677 L 455 447.38197886899 L 456 464.56437373411865 L 457 481.55371834082354 L 458 498.29758992561847 L 459 514.7443231629609 L 460 530.8431695851161 L 461 546.5444541729526 L 462 561.7997286344752 L 463 576.5619208981282 L 464 590.7854803596106 L 465 604.426518433998 L 466 617.4429439795085 L 467 629.7945931750176 L 468 641.4433534505953 L 469 652.3532810886372 L 470 662.4907121327376 L 471 671.8243662620692 L 472 680.3254433107511 L 473 687.9677121343934 L 474 694.7275915495948 L 475 700.5842230966588 L 476 705.5195354009959 L 477 709.51829993463 L 478 712.5681780057378 L 479 714.6597588312384 L 480 715.7865885749508 L 481 715.945190261717 L 482 715.1350745060486 L 483 713.358741022186 L 484 710.6216709109162 L 485 706.9323097469457 L 486 702.302041519014 L 487 696.7451535031639 L 488 690.2787921775509 L 489 682.922910314822 L 490 674.7002054153252 L 491 665.6360496711081 L 492 655.7584116768273 L 493 645.0977701291201 L 494 633.6870197807507 L 495 621.5613699397006 L 496 608.7582358264178 L 497 595.3171231244366 L 498 581.2795060806111 L 499 566.688699531107 L 500 551.5897252480089 L 501 536.0291730189781 L 502 520.055056888584 L 503 503.7166670049275 L 504 487.0644175286709 L 505 470.1496910737993 L 506 453.02468016008845 L 507 435.7422261665047 L 508 418.3556562824801 L 509 400.91861896014103 L 510 383.48491837525825 L 511 366.1083484076743 L 512 348.84252665351784 L 513 331.7407289813459 L 514 314.8557251427466 L 515 298.2396159446179 L 516 281.94367248556 L 517 266.01817795244756 L 518 250.51227246531286 L 519 235.47380144932146 L 520 220.94916800167636 L 521 206.98318970902244 L 522 193.6189603571282 L 523 180.89771695958632 L 524 168.8587125158092 L 525 157.53909489095147 L 526 146.97379219149624 L 527 137.19540499017597 L 528 128.23410573280302 L 529 120.11754563738106 L 530 112.87076937279238 L 531 106.51613778031259 L 532 101.07325887642025 L 533 96.55892734979 L 534 92.9870727391638 L 535 90.3687164520058 L 536 88.71193775655922 L 537 88.02184885224733 L 538 88.30057909533718 L 539 89.54726842854302 L 540 91.75807003484141 L 541 94.92616220730946 L 542 99.04176939836128 L 543 104.09219238343246 L 544 110.06184744603598 L 545 116.93231446328537 L 546 124.68239374350202 L 547 133.2881714405383 L 548 142.72309334295926 L 549 152.95804681041247 L 550 163.96145060434358 L 551 175.69935233588916 L 552 188.13553323025295 L 553 201.2316198842938 L 554 214.94720267250247 L 555 229.2399604359864 L 556 244.06579106974473 L 557 259.3789476052633 L 558 275.13217936855756 L 559 291.2768777780741 L 560 307.7632263325968 L 561 324.54035432634134 L 562 341.55649381692075 L 563 358.7591393618627 L 564 376.0952100307596 L 565 393.51121319317616 L 566 410.95340957689257 L 567 428.3679790872085 L 568 445.70118687561927 L 569 462.89954914546496 L 570 479.90999818292727 L 571 496.6800461041397 L 572 513.1579468131754 L 573 529.2928556711374 L 574 545.034986383708 L 575 560.335764623023 L 576 575.1479779098909 L 577 589.4259212938376 L 578 603.1255383814956 L 579 616.2045572781531 L 580 628.6226210230183 L 581 640.3414121156977 L 582 651.3247707496778 L 583 661.5388063879611 L 584 670.9520023365947 L 585 679.5353129933908 L 586 687.2622534717996 L 587 694.1089813233609 L 588 700.0543701065831 L 589 705.0800745752431 L 590 709.1705872849509 L 591 712.3132864433255 L 592 714.4984748561258 L 593 715.7194098491655 L 594 715.9723240736819 L 595 715.2564371309678 L 596 713.5739579803885 L 597 710.9300781233599 L 598 707.3329555843159 L 599 702.7936897380973 L 600 697.3262870614317 L 601 690.9476179141851 L 602 683.6773644837382 L 603 675.5379600531214 L 604 666.5545197802908 L 605 656.7547632021444 L 606 646.1689287023993 L 607 634.8296802072435 L 608 622.7720063966839 L 609 610.0331127425602 L 610 596.6523067063764 L 611 582.6708764511691 L 612 568.1319634416875 L 613 553.0804293259621 L 614 537.5627175090378 L 615 521.6267098459988 L 616 505.32157889646203 L 617 488.6976361964619 L 618 471.8061770158577 L 619 454.6993220803197 L 620 437.42985674625373 L 621 420.0510681249463 L 622 402.61658065845944 L 623 385.18019065466024 L 624 367.79570029193644 L 625 350.51675160578736 L 626 333.39666096957717 L 627 316.48825458013835 L 628 299.8437054558892 L 629 283.51437245040347 L 630 267.5506417782086 L 631 252.0017715417638 L 632 236.9157397393803 L 633 222.33909622306413 L 634 208.31681906307483 L 635 194.89217576243354 L 636 182.10658974958318 L 637 169.99951256118385 L 638 158.60830210941938 L 639 147.96810740946137 L 640 138.11176012274785 L 641 129.0696732507564 L 642 120.86974729185732 L 643 113.53728415080587 L 644 107.09490906653366 L 645 101.5625007991186 L 646 96.95713029136778 L 647 93.29300799426977 L 648 90.58144001886166 L 649 88.83079324979593 L 650 88.04646952826431 L 651 88.23088898393638 L 652 89.3834825673444 L 653 91.50069380575701 L 654 94.57598977712422 L 655 98.59988126823083 L 656 103.55995205486153 L 657 109.44089721362246 L 658 116.2245703472123 L 659 123.89003957741755 L 660 132.41365213305892 L 661 141.76910733360154 L 662 151.92753774321227 L 663 162.8575982448745 L 664 174.52556275969377 L 665 186.8954283129697 L 666 199.92902612590217 L 667 213.5861393901733 L 668 227.82462736197556 L 669 242.60055539258488 L 670 257.8683304942625 L 671 273.58084202315234 L 672 289.68960704511613 L 673 306.1449199359316 L 674 322.89600575426766 L 675 339.89117691415083 L 676 357.07799267353306 L 677 374.4034209468068 L 678 391.8140019419852 L 679 409.25601311763523 L 680 426.67563495053486 L 681 444.0191170026026 L 682 461.2329437746425 L 683 478.2639998351682 L 684 495.059733714747 L 685 511.56832006018885 L 686 527.7388195482015 L 687 543.5213360650893 L 688 558.8671706675063 L 689 573.7289718491716 L 690 588.0608816499146 L 691 601.8186771561866 L 692 614.95990695644 L 693 627.4440221302963 L 694 639.2325013673566 L 695 650.2889698295571 L 696 660.5793113903135 L 697 670.071773904134 L 698 678.7370671818567 L 699 686.5484533692243 L 700 693.4818294499006 L 701 699.5158016183678 L 702 704.6317512932036 L 703 708.8138925670635 L 704 712.0493209160868 L 705 714.3280530184304 L 706 715.643057559067 L 707 715.9902769257922 L 708 715.3686397294996 L 709 713.7800641100864 L 710 711.2294518177903 L 711 707.7246730882231 L 712 703.2765423577657 L 713 697.8987848942625 L 714 691.6079944459791 L 715 684.4235820394972 L 716 676.3677160845521 L 717 667.4652539706067 L 718 657.7436653662478 L 719 647.2329474580562 L 720 635.9655323905156 L 721 623.9761871925393 L 722 611.3019064994236 L 723 597.9817984012399 L 724 584.0569637698886 L 725 569.570369437191 L 726 554.5667156153074 L 727 539.0922979686056 L 728 523.1948647625459 L 729 506.9234695304041 L 730 490.3283197124056 L 731 473.46062173434433 L 732 456.3724230037062 L 733 439.11645131082616 L 734 421.74595213066044 L 735 404.31452432715605 L 736 386.87595476720657 L 737 369.4840523544883 L 738 352.1924819953214 L 739 335.05459900883017 L 740 318.1232844923859 L 741 301.4507821503192 L 742 285.0885370893795 L 743 269.08703707838845 L 744 253.495656761859 L 745 238.362505308313 L 746 223.73427796337143 L 747 209.6561119657025 L 748 196.17144727037626 L 749 183.32189250941178 L 750 171.14709660310166 L 751 159.6846264182666 L 752 148.96985085096352 L 753 139.03583169129394 L 754 129.9132216070875 L 755 121.63016956122851 L 756 114.21223395449101 L 757 107.68230376186807 L 758 102.06052790575671 L 759 97.36425308391927 L 760 93.6079702440598 L 761 90.80326987018248 L 762 88.95880621869009 L 763 88.08027061458654 L 764 88.1703738901756 L 765 89.22883802044748 L 766 91.25239698095908 L 767 94.23480682556419 L 768 98.16686495289565 L 769 103.03643850215332 L 770 108.82850179057209 L 771 115.52518267706097 L 772 123.1058177089451 L 773 131.54701588165648 L 774 140.82273081462012 L 775 150.90434112064702 L 776 161.7607387208297 L 777 173.3584248324379 L 778 185.66161333363962 L 779 198.6323411860804 L 780 212.23058557462716 L 781 226.41438740280435 L 782 241.13998076288001 L 783 256.3619279810782 L 784 272.0332598212535 L 785 288.105620414386 L 786 304.5294164667056 L 787 321.25397028605755 L 788 338.22767615429433 L 789 355.39815956322997 L 790 372.71243882278 L 791 390.1170885426508 L 792 407.5584044830999 L 793 424.98256926614346 L 794 442.3358184358549 L 795 459.5646063553659 L 796 476.61577142868475 L 797 493.4367001374858 L 798 509.9754893867588 L 799 526.1811066583441 L 800 542.003547478206 L 801 557.3939897115253 L 802 572.3049442095567 L 803 586.690401343379 L 804 600.5059729724002 L 805 613.7090294095658 L 806 626.2588309606188 L 807 638.1166536315671 L 808 649.2459086164425 L 809 659.612255196678 L 810 669.1837067037131 L 811 677.9307292178961 L 812 685.8263326991123 L 813 692.846154267954 L 814 698.9685333804572 L 815 704.174578664434 L 816 708.448226211186 L 817 711.7762891427171 L 818 714.1484983015084 L 819 715.557533937296 L 820 715.9990482930832 L 821 715.4716790206936 L 822 713.9770533844672 L 823 711.5197832401309 L 824 708.1074508043371 L 825 703.7505852587792 L 826 698.4626302610745 L 827 692.2599024626629 L 828 685.1615411617261 L 829 677.1894492464696 L 830 668.3682256110014 L 831 658.7250892523466 L 832 648.2897952827966 L 833 637.0945431167688 L 834 625.1738771154514 L 835 612.5645799958271 L 836 599.3055593329583 L 837 585.4377275057717 L 838 571.0038754567518 L 839 556.0485406550973 L 840 540.6178696707507 L 841 524.7594757833332 L 842 508.52229206538414 L 843 491.956420393191 L 844 475.1129768511421 L 845 458.0439340065981 L 846 440.80196054200036 L 847 423.4402587390058 L 848 406.01240031614554 L 849 388.57216112653964 L 850 371.17335522571693 L 851 353.8696688215799 L 852 336.7144946188365 L 853 319.76076706908646 L 854 303.0607990348924 L 855 286.66612037186394 L 856 270.62731892678653 L 857 254.99388444244823 L 858 239.81405585080438 L 859 225.1346724256671 L 860 211.00102925423585 L 861 197.4567374733906 L 862 184.54358970203745 L 863 172.3014310847107 L 864 160.76803634436862 L 865 149.97899322371913 L 866 139.9675926747575 L 867 130.76472613534042 L 868 122.39879020975707 L 869 114.89559904743601 L 870 108.27830469012957 L 871 102.56732563337357 L 872 97.78028382264387 L 873 93.93195027862754 L 874 91.03419951937434 L 875 89.09597291997585 L 876 88.12325112282599 L 877 88.11903558359495 L 878 89.08333930986043 L 879 91.0131868209703 L 880 93.90262332926301 L 881 97.7427331143167 L 882 102.52166703352583 L 883 108.224679084125 L 884 114.83417190383818 L 885 122.32975106975647 L 886 130.68828802790358 L 887 139.8839914592976 L 888 149.8884868623192 L 889 160.6709041058094 L 890 172.19797268275457 L 891 184.43412437061957 L 892 197.34160298158568 L 893 210.880580864024 L 894 225.00928179573125 L 895 239.68410988973451 L 896 254.85978411488276 L 897 270.4894780161812 L 898 286.5249642037146 L 899 302.91676316434393 L 900 319.61429593696636 L 901 336.5660401802809 L 902 353.7196891514623 L 903 371.02231310520517 L 904 388.42052261513044 L 905 405.86063331357497 L 906 423.288831541481 L 907 440.65134039721727 L 908 457.89458567199426 L 909 474.9653611598221 L 910 491.81099283197267 L 911 508.37950136932955 L 912 524.619762551125 L 913 540.481665005173 L 914 555.9162648328102 L 915 570.8759366314697 L 916 585.314520448859 L 917 599.1874642153153 L 918 612.4519612148197 L 919 625.06708217052 L 920 636.9939015371709 L 921 648.1956176108057 L 922 658.6376660850378 L 923 668.2878267035742 L 924 677.1163226798819 L 925 685.0959125772123 L 926 692.201974365491 L 927 698.4125813956875 L 928 703.7085700572579 L 929 708.0735989098794 L 930 711.4941991070219 L 931 713.959815955774 L 932 715.4628414846744 L 933 715.9986379190686 L 934 715.565551991547 L 935 714.1649200433084 L 936 711.8010639007124 L 937 708.4812775397388 L 938 704.2158045795056 L 939 699.0178066742931 L 940 692.9033229015968 L 941 685.8912202715385 L 942 678.0031355103258 L 943 669.2634082974089 L 944 659.6990061623289 L 945 649.339441273013 L 946 638.2166793722586 L 947 626.3650411434064 L 948 613.8210963095491 L 949 600.6235507930373 L 950 586.8131272834873 L 951 572.4324395827861 L 952 557.5258611148388 L 953 542.1393880057706 L 954 526.3204971570959 L 955 510.1179997497482 L 956 493.58189063103316 L 957 476.76319404923004 L 958 459.7138062118357 L 959 442.48633515329027 L 960 425.1339384062494 L 961 407.710158977324 L 962 390.26876013337744 L 963 372.86355950820507 L 964 355.5482630414348 L 965 338.37629926208564 L 966 321.4006544281115 L 967 304.67370903061726 L 968 288.2470761672661 L 969 272.1714422835548 L 970 256.4964107734039 L 971 241.27034892162723 L 972 226.54023866059248 L 973 212.35153160154104 L 974 198.7480087879163 L 975 185.77164560343928 L 976 173.46248225176677 L 977 161.85850020740756 L 978 150.9955050190904 L 979 140.90701582723466 L 980 131.62416193641434 L 981 123.1755867619737 L 982 115.58735944715522 L 983 108.88289442347445 L 984 103.08287916254204 L 985 98.20521034226067 L 986 94.26493862437457 L 987 91.27422221375349 L 988 89.24228934272026 L 989 88.17540979617667 L 990 88.07687556539338 L 991 88.94699069015502 L 992 90.78307032060741 L 993 93.57944900169986 L 994 97.32749815466167 L 995 102.0156527015676 L 996 107.62944675084384 L 997 114.15155823359834 L 998 121.5618623530504 L 999 129.8374936821216 L 1000 138.95291671759583 L 1001 148.88000467313094 L 1002 159.5881262680007 L 1003 171.0442402437767 L 1004 183.21299731728615 L 1005 196.05684925528485 L 1006 209.53616473425873 L 1007 223.60935162787325 L 1008 238.23298534470968 L 1009 253.36194282032002 L 1010 268.94954175012674 L 1011 284.9476846335532 L 1012 301.3070071849305 L 1013 317.97703065320866 L 1014 334.9063175805115 L 1015 352.04263051888984 L 1016 369.3330932155584 L 1017 386.7243537692226 L 1018 404.16274925410164 L 1019 421.5944713036454 L 1020 438.96573214302686 L 1021 456.22293055810815 L 1022 473.31281728872705 L 1023 490.18265933600753 L 1024 506.78040267666813 L 1025 523.0548328822782 L 1026 538.955733147817 L 1027 554.4340392419621 L 1028 569.4419909009542 L 1029 583.9332791989084 L 1030 597.8631894398462 L 1031 611.1887391305137 L 1032 623.8688106082875 L 1033 635.8642779149008 L 1034 647.1381275245228 L 1035 657.6555725536484 L 1036 667.3841601004156 L 1037 676.2938713821225 L 1038 684.3572143619622 L 1039 691.5493085791711 L 1040 697.847961920819 L 1041 703.2337390983741 L 1042 707.6900216177332 L 1043 711.2030590576811 L 1044 713.7620114985447 L 1045 715.3589829701332 L 1046 715.9890458157486 L 1047 715.6502558970913 L 1048 714.3436585931438 L 1049 712.0732855745218 L 1050 708.8461423632472 L 1051 704.6721867163268 L 1052 699.5642978998371 L 1053 693.5382369483289 L 1054 686.6125980321666 L 1055 678.808751082874 L 1056 670.1507758535187 L 1057 660.6653876175951 L 1058 650.3818547356891 L 1059 639.3319083442587 L 1060 627.5496444452174 L 1061 615.0714186984172 L 1062 601.9357342416893 L 1063 588.183122884554 L 1064 573.8560200422176 L 1065 558.9986337957527 L 1066 543.656808482487 L 1067 527.8778832375351 L 1068 511.7105459229243 L 1069 495.2046828950663 L 1070 478.4112250741093 L 1071 461.38199079017994 L 1072 444.16952589138754 L 1073 426.82694160699106 L 1074 409.4077506660115 L 1075 391.96570217695455 L 1076 374.5546157781773 L 1077 357.2282155706039 L 1078 340.03996434524674 L 1079 323.0428986170202 L 1080 306.28946497390393 L 1081 289.83135824637844 L 1082 273.71936199651424 L 1083 258.0031918188943 L 1084 242.73134193687454 L 1085 227.9509355675594 L 1086 213.7075795171697 L 1087 200.04522345549933 L 1088 187.00602430366413 L 1089 174.63021615362084 L 1090 162.9559861207992 L 1091 152.0193565129479 L 1092 141.85407367876587 L 1093 132.49150387928665 L 1094 123.96053650333516 L 1095 116.28749492567317 L 1096 109.49605528291193 L 1097 103.60717341780588 L 1098 98.63902021736459 L 1099 94.60692554428789 L 1100 91.52333093474351 L 1101 89.39775120844013 L 1102 88.23674510945108 L 1103 88.04389506838481 L 1104 88.81979614834262 L 1105 90.56205420877649 L 1106 93.26529329291259 L 1107 96.92117221594174 L 1108 101.51841030279695 L 1109 107.04282219609763 L 1110 113.47736162685652 L 1111 120.80217401289343 L 1112 128.99465772264574 L 1113 138.0295338153535 L 1114 147.87892404241418 L 1115 158.51243686923692 L 1116 169.89726125214403 L 1117 181.9982678809855 L 1118 194.7781175750509 L 1119 208.19737649781428 L 1120 222.21463783501252 L 1121 236.78664956057793 L 1122 251.86844789622117 L 1123 267.4134960528312 L 1124 283.37382782560957 L 1125 299.7001955998276 L 1126 316.34222231055463 L 1127 333.24855688743753 L 1128 350.3670327048965 L 1129 367.6448285488302 L 1130 385.0286316031144 L 1131 402.4648019530222 L 1132 419.8995380979355 L 1133 437.2790429626631 L 1134 454.54968989508137 L 1135 471.65818813793555 L 1136 488.55174726418346 L 1137 505.17824006850816 L 1138 521.4863634123863 L 1139 537.4257965263737 L 1140 552.9473562811885 L 1141 568.0031489484498 L 1142 582.5467179828192 L 1143 596.5331873695127 L 1144 609.9194000949074 L 1145 622.6640513129428 L 1146 634.7278157964261 L 1147 646.073469279982 L 1148 656.6660033202043 L 1149 666.4727333186263 L 1150 675.463399374164 L 1151 683.6102596538591 L 1152 690.8881759937922 L 1153 697.2746914660611 L 1154 702.7500996724586 L 1155 707.2975055510491 L 1156 710.9028775080095 L 1157 713.5550907138802 L 1158 715.2459614306301 L 1159 715.9702722636082 L 1160 715.7257882604742 L 1161 714.5132638074256 L 1162 712.336440301443 L 1163 709.2020346057395 L 1164 705.1197183240324 L 1165 700.1020879575907 L 1166 694.1646260371458 L 1167 687.3256533495855 L 1168 679.6062724068663 L 1169 671.0303023315482 L 1170 661.6242053598925 L 1171 651.417005189297 L 1172 640.440197422021 L 1173 628.7276523815358 L 1174 616.3155106013737 L 1175 603.2420713089622 L 1176 589.5476742485172 L 1177 575.2745752077005 L 1178 560.4668156320488 L 1179 545.1700867295478 L 1180 529.4315884846524 L 1181 513.2998840167874 L 1182 496.8247497327237 L 1183 480.0570217352032 L 1184 463.0484389617423 L 1185 445.85148353760405 L 1186 428.51921883561346 L 1187 411.1051257424174 L 1188 393.66293763647445 L 1189 376.2464745869449 L 1190 358.9094772850862 L 1191 341.7054412205785 L 1192 324.6874516144505 L 1193 307.90801961794557 L 1194 291.41892028273094 L 1195 275.27103280247763 L 1196 259.5141835186804 L 1197 244.196992175207 L 1198 229.36672189595217 L 1199 215.06913334851396 L 1200 201.34834354388747 L 1201 188.2466897078689 L 1202 175.8045986442136 L 1203 164.06046199262693 L 1204 153.05051776654122 L 1205 142.8087385361468 L 1206 133.36672660174878 L 1207 124.75361648088818 L 1208 116.99598501011627 L 1209 110.11776933881714 L 1210 104.14019306811713 L 1211 99.08170076279026 L 1212 94.95790103822469 L 1213 91.78151839808118 L 1214 89.56235397122805 L 1215 88.3072552691246 L 1216 88.0200950569619 L 1217 88.70175940375731 L 1218 90.35014494827743 L 1219 92.96016538922402 L 1220 96.52376717965626 L 1221 101.02995437722888 L 1222 106.46482257355206 L 1223 112.811601797999 L 1224 120.05070826356251 L 1225 128.1598047950976 L 1226 137.11386975348967 L 1227 146.88527424307486 L 1228 157.4438673640791 L 1229 168.7570692470153 L 1230 180.7899715819876 L 1231 193.50544533266273 L 1232 206.86425530260135 L 1233 220.82518120039762 L 1234 235.34514483008218 L 1235 250.37934301432375 L 1236 265.8813858402781 L 1237 281.8034398015095 L 1238 298.0963753942975 L 1239 314.7099187129282 L 1240 331.59280657613954 L 1241 348.69294470614335 L 1242 365.95756847207923 L 1243 383.3334057019313 L 1244 400.7668410605279 L 1245 418.2040814864134 L 1246 435.5913221771175 L 1247 452.87491261064883 L 1248 470.0015220909577 L 1249 486.91830430649236 L 1250 503.5730603941697 L 1251 519.9144000055403 L 1252 535.8918998781832 L 1253 551.4562594230364 L 1254 566.5594528475758 L 1255 581.1548773454499 L 1256 595.1974968953065 L 1257 608.6439812251266 L 1258 621.4528395132161 L 1259 633.5845484133787 L 1260 645.0016740091771 L 1261 655.6689873209992 L 1262 665.553573009513 L 1263 674.6249309400939 L 1264 682.8550702948332 L 1265 690.218595941732 L 1266 696.6927867945877 L 1267 702.2576659217576 L 1268 706.8960621875061 L 1269 710.5936632357055 L 1270 713.3390596524148 L 1271 715.1237801710631 L 1272 715.9423178116111 L 1273 715.792146873031 L 1274 714.6737307266762 L 1275 712.5905203864888 L 1276 709.5489438604634 L 1277 705.5583863162174 L 1278 700.6311611218737 L 1279 694.7824718516122 L 1280 688.030365373126 L 1281 680.3956761617368 L 1282 671.9019620129961 L 1283 662.5754313521421 L 1284 652.4448623646899 L 1285 641.5415141977301 L 1286 629.8990305058808 L 1287 617.5533356395555 L 1288 604.5425237958528 L 1289 590.9067414741114 L 1290 576.6880635988279 L 1291 561.9303636921754 L 1292 546.6791784967274 L 1293 530.981567466084 L 1294 514.8859675570227 L 1295 498.44204377114886 L 1296 481.7005359072794 L 1297 464.7131019974004 L 1298 447.53215890930005 L 1299 430.2107206077187 L 1300 412.80223457308057 L 1301 395.3604168825631 L 1302 377.93908646235406 L 1303 360.59199902260093 L 1304 343.37268118737575 L 1305 326.33426533153624 L 1306 309.5293256340889 L 1307 293.0097158539347 L 1308 276.8264093285627 L 1309 261.0293416893942 L 1310 245.6672567791038 L 1311 230.78755624633573 L 1312 216.43615328196742 L 1313 202.65733094815826 L 1314 189.4936055373854 L 1315 176.98559538306628 L 1316 165.17189552657268 L 1317 154.0889586273677 L 1318 143.77098248373176 L 1319 134.2498045111492 L 1320 125.55480350394191 L 1321 117.71280898331213 L 1322 110.74801841146427 L 1323 104.68192252728886 L 1324 99.5332390339799 L 1325 95.31785484320295 L 1326 92.04877705402765 L 1327 89.73609281788458 L 1328 88.38693821338853 L 1329 88.00547622706796 L 1330 88.59288390794717 L 1331 90.14734873561207 L 1332 92.66407421297032 L 1333 96.13529466644786 L 1334 100.55029920795306 L 1335 105.89546478467133 L 1336 112.15429821471145 L 1337 119.30748707889444 L 1338 127.33295931166361 L 1339 136.20595130721358 L 1340 145.8990843307226 L 1341 156.3824489988877 L 1342 167.6236975690949 L 1343 179.5881437524553 L 1344 192.23886974271986 L 1345 205.5368401308224 L 1346 219.44102235354913 L 1347 233.90851330469707 L 1348 248.8946717179928 L 1349 264.35325591335845 L 1350 280.23656648143884 L 1351 296.4955934661391 L 1352 313.0801675910198 L 1353 329.93911506292056 L 1354 347.0204154751471 L 1355 364.27136232298636 L 1356 381.6387256362855 L 1357 399.0689162272056 L 1358 416.5081510464306 L 1359 433.90261913753835 L 1360 451.1986476774871 L 1361 468.3428675908738 L 1362 485.282378226941 L 1363 501.9649105912002 L 1364 518.3389886279963 L 1365 534.3540880563803 L 1366 549.9607922691189 L 1367 565.1109448138797 L 1368 579.7577979860287 L 1369 593.8561570745628 L 1370 607.3625198160859 L 1371 620.2352106265232 L 1372 632.4345091963879 L 1373 643.9227730527975 L 1374 654.6645537100787 L 1375 664.6267060505195 L 1376 673.7784905978168 L 1377 682.0916683676023 L 1378 689.5405880023861 L 1379 696.1022649220523 L 1380 701.7564522456777 L 1381 706.4857032658333 L 1382 710.2754252825982 L 1383 713.113924631177 L 1384 714.9924427641706 L 1385 715.9051832771817 L 1386 715.8493297943496 L 1387 714.8250546586335 L 1388 712.8355184000256 L 1389 709.8868599833388 L 1390 705.9881778656558 L 1391 701.1515019218959 L 1392 695.3917563251146 L 1393 688.7267134960939 L 1394 681.1769392642952 L 1395 672.7657294094013 L 1396 663.5190377792528 L 1397 653.4653962059809 L 1398 642.6358264674441 L 1399 631.0637445656237 L 1400 618.7848576173421 L 1401 605.8370536754429 L 1402 592.2602848204475 L 1403 578.0964438833648 L 1404 563.3892351800861 L 1405 548.1840396562102 L 1406 532.527774858419 L 1407 516.4687501644748 L 1408 500.0565177185481 L 1409 483.3417195318377 L 1410 466.3759312202467 L 1411 449.21150286134656 L 1412 431.9013974615999 L 1413 414.49902753233425 L 1414 397.0580902787088 L 1415 379.63240191022135 L 1416 362.2757315840135 L 1417 345.04163549336073 L 1418 327.98329161329445 L 1419 311.1533356132421 L 1420 294.60369844306297 L 1421 278.38544609354136 L 1422 262.5486220258424 L 1423 247.14209275610642 L 1424 232.21339707165671 L 1425 217.80859934408068 L 1426 203.97214739180748 L 1427 190.7467353307669 L 1428 178.17317183630158 L 1429 166.2902542228777 L 1430 155.13464873006902 L 1431 144.74077738425785 L 1432 135.14071178513558 L 1433 126.3640741447407 L 1434 118.43794588439101 L 1435 111.38678407154589 L 1436 105.2323459544445 L 1437 99.99362182736849 L 1438 95.6867764337062 L 1439 92.325099087593 L 1440 89.9189626680602 L 1441 88.47579161220943 L 1442 88.00003900617673 L 1443 88.49317284457402 L 1444 89.95367150080688 L 1445 92.37702842224417 L 1446 95.755766035757 L 1447 100.07945882070902 L 1448 105.33476547821613 L 1449 111.50547009740461 L 1450 118.57253219164778 L 1451 126.51414545038625 L 1452 135.30580502524703 L 1453 144.92038314284065 L 1454 155.3282128109215 L 1455 166.49717935964145 L 1456 178.39281953539398 L 1457 190.97842784153627 L 1458 204.2151697978215 L 1459 218.0622017690808 L 1460 232.47679699340603 L 1461 247.41447742095738 L 1462 262.8291509565904 L 1463 278.67325368281917 L 1464 294.89789662429337 L 1465 311.4530166008672 L 1466 328.2875307038664 L 1467 345.34949391883504 L 1468 362.58625940842313 L 1469 379.9446409608368 L 1470 397.3710771025964 L 1471 414.8117963692119 L 1472 432.2129832238072 L 1473 449.5209441117582 L 1474 466.68227313889406 L 1475 483.644016862131 L 1476 500.35383768398873 L 1477 516.760175346842 L 1478 532.8124060285922 L 1479 548.4609985488497 L 1480 563.6576672036311 L 1481 578.35552075698 L 1482 592.5092071297986 L 1483 606.0750533393798 L 1484 619.0112002579131 L 1485 631.2777317740944 L 1486 642.8367979593169 L 1487 653.6527318583945 L 1488 663.692159544447 L 1489 672.9241030983559 L 1490 681.3200761950354 L 1491 688.8541720015864 L 1492 695.5031431160807 L 1493 701.2464733003571 L 1494 706.0664407854582 L 1495 709.9481729543808 L 1496 712.8796922334095 L 1497 714.8519530504302 L 1498 715.8588697461821 L 1499 715.8973353523265 L 1500 714.967231178389 L 1501 713.0714271779937 L 1502 710.2157730932597 L 1503 706.409080404685 L 1504 701.6630951422133 L 1505 695.9924616413778 L 1506 689.4146773563592 L 1507 681.9500388693867 L 1508 673.621579263077 L 1509 664.4549970489481 L 1510 654.478576871436 L 1511 643.7231022320523 L 1512 632.2217605030137 L 1513 620.0100405234233 L 1514 607.1256230939853 L 1515 593.6082647081471 L 1516 579.4996748784295 L 1517 564.8433874364736 L 1518 549.684626203903 L 1519 534.0701654485465 L 1520 518.048185556526 L 1521 501.66812436560815 L 1522 484.98052461852626 L 1523 468.0368780069794 L 1524 450.88946628752956 L 1525 433.5911999596541 L 1526 416.195455003737 L 1527 398.75590818273844 L 1528 381.32637141580574 L 1529 363.9606257347987 L 1530 346.71225533614364 L 1531 329.63448224004355 L 1532 312.7800020672288 L 1533 296.20082143997934 L 1534 279.948097509139 L 1535 264.07198010228444 L 1536 248.621456980097 L 1537 233.64420267847905 L 1538 219.18643140274983 L 1539 205.29275442789617" stroke-linecap="round" stroke-linejoin="round" stroke-miterlimit="10" stroke-width="16"/></g></svg>